<svg width="36" height="36" viewBox="0 0 36 36" fill="none" xmlns="http://www.w3.org/2000/svg">
<g id="complete">
<path id="fill-background" fill-rule="evenodd" clip-rule="evenodd" d="M18.005 34.13C26.9106 34.13 34.13 26.9106 34.13 18.005C34.13 9.09941 26.9106 1.88 18.005 1.88C9.09941 1.88 1.88 9.09941 1.88 18.005C1.88 26.9106 9.09941 34.13 18.005 34.13Z" fill="#2BC275"/>
<path id="fill-foreground" fill-rule="evenodd" clip-rule="evenodd" d="M24.3606 12.7709C24.8324 13.1752 24.887 13.8854 24.4826 14.3572L17.3467 22.6824C17.1466 22.9159 16.8597 23.0572 16.5526 23.0737C16.2456 23.0901 15.9452 22.9802 15.7214 22.7694L12.1038 19.3636C11.6515 18.9377 11.63 18.2257 12.0559 17.7733C12.4818 17.321 13.1938 17.2995 13.6462 17.7254L16.4055 20.3232L22.7743 12.8929C23.1787 12.4211 23.8889 12.3665 24.3606 12.7709Z" fill="black"/>
</g>
</svg>
