<svg width="266" height="150" viewBox="0 0 266 150" fill="none" xmlns="http://www.w3.org/2000/svg">
<path d="M108.1 85.7L125 88V25L88.5 29.5L70 56L108.1 85.7Z" fill="#CCD9E0"/>
<path d="M141.9 87.2L125 89.5V25L161.5 31L172 52L141.9 87.2Z" fill="#E7F0F4"/>
<path d="M125.66 25.78L161.06 31.6L171.21 51.9L141.56 86.58L125.66 88.74V25.74V25.78ZM125 25V89.5L141.9 87.2L172 52L161.5 31L125 25Z" fill="#8CA9B8"/>
<path opacity="0.2" d="M125 82.5V25L136 87L125 82.5Z" fill="#5A7D91"/>
<path d="M125.5 102.5L103 89.5L125 77L147 89.5L125.5 102.5Z" fill="#CBD9DF"/>
<path d="M125.5 102.5L103 89.5L125 77L147 89.5L125.5 102.5Z" stroke="#8CA9B8" stroke-width="0.66" stroke-linecap="round" stroke-linejoin="round"/>
<path opacity="0.3" d="M197.94 102.32L220.22 90.7L168.71 62L76 117.69L124.61 145.76L141.59 134.07L169.52 147.63L224.77 115.73L197.94 102.32Z" fill="#5A7D91"/>
<path d="M172 105.5V52.5L117 84V137L172 105.5Z" fill="#CBD8DF"/>
<path d="M70 56V109L117 136.5V83.5L70 56Z" fill="#E7F0F4"/>
<path d="M172 51.9998V105L117 136.5V83.4998L148.5 74.9998L172 51.9998ZM172 51.3398C171.828 51.3407 171.663 51.4089 171.54 51.5298L148.16 74.4098L116.83 82.8598C116.689 82.8974 116.565 82.9806 116.476 83.0964C116.387 83.2121 116.339 83.354 116.34 83.4998V136.5C116.34 136.615 116.371 136.729 116.429 136.829C116.487 136.929 116.57 137.012 116.67 137.07C116.77 137.129 116.884 137.16 117 137.16C117.116 137.16 117.23 137.129 117.33 137.07L172.33 105.57C172.431 105.513 172.514 105.43 172.573 105.33C172.631 105.23 172.661 105.116 172.66 105V51.9998C172.661 51.8701 172.623 51.7431 172.552 51.6346C172.481 51.5261 172.379 51.441 172.26 51.3898C172.174 51.3757 172.086 51.3757 172 51.3898V51.3398Z" fill="#8CA9B8"/>
<path d="M74.5 105.73V96.8799L88.5 105.28V114.12L74.5 105.73Z" fill="#E7F0F4"/>
<path d="M75 97.77L88 105.57V113.24L75 105.45V97.77ZM74 96V106L89 115V105L74 96Z" fill="#5A7D91"/>
<path d="M76.4 107.4L76.04 107.19V97.6799L76.4 97.8899V107.4Z" fill="#5A7D91"/>
<path d="M78.69 108.72L78.45 108.58V99.0701L78.69 99.2001V108.72Z" fill="#5A7D91"/>
<path d="M85.17 112.47L84.93 112.33V102.81L85.17 102.95V112.47Z" fill="#5A7D91"/>
<path d="M76.64 107.54L76.52 107.47V97.96L76.64 98.03V107.54Z" fill="#5A7D91"/>
<path d="M79.05 108.93L78.93 108.86V99.3398L79.05 99.4099V108.93Z" fill="#5A7D91"/>
<path d="M79.41 109.14L79.29 109.07V99.55L79.41 99.62V109.14Z" fill="#5A7D91"/>
<path d="M82.29 110.8L82.17 110.73V101.22L82.29 101.29V110.8Z" fill="#5A7D91"/>
<path d="M82.65 111.01L82.53 110.94V101.42L82.65 101.5V111.01Z" fill="#5A7D91"/>
<path d="M85.89 112.88L85.78 112.81V103.3L85.89 103.37V112.88Z" fill="#5A7D91"/>
<path d="M86.38 113.16L86.26 113.09V103.58L86.38 103.64V113.16Z" fill="#5A7D91"/>
<path d="M87.58 113.85L87.46 113.78V104.27L87.58 104.34V113.85Z" fill="#5A7D91"/>
<path d="M83.49 111.49L83.37 111.42V101.91L83.49 101.98V111.49Z" fill="#5A7D91"/>
<path d="M84.69 112.19L84.57 112.12V102.61L84.69 102.67V112.19Z" fill="#5A7D91"/>
<path d="M77.84 108.23L77.48 108.03V98.51L77.84 98.72V108.23Z" fill="#5A7D91"/>
<path d="M80.25 109.62L79.77 109.34V99.8301L80.25 100.11V109.62Z" fill="#5A7D91"/>
<path d="M84.21 111.91L83.73 111.63V102.12L84.21 102.4V111.91Z" fill="#5A7D91"/>
<path d="M77.36 107.96L76.88 107.68V98.1699L77.36 98.4399V107.96Z" fill="#5A7D91"/>
<path d="M81.81 110.52L81.33 110.25V100.73L81.81 101.01V110.52Z" fill="#5A7D91"/>
<path d="M81.09 110.11L80.73 109.9V100.39L81.09 100.59V110.11Z" fill="#5A7D91"/>
<path d="M87.1 113.58L86.74 113.37V103.85L87.1 104.06V113.58Z" fill="#5A7D91"/>
<path d="M163.34 67.14V83.63L126.66 105.83V88.38L163.34 67.14ZM164 66L126 88V107L164 84V66Z" fill="#8CA9B8"/>
<path d="M158.24 76.7201L131.84 91.8501V90.2101L158.24 75.0801V76.7201Z" fill="#8CA6B5"/>
<path d="M158.24 79.9999L131.84 95.1399V93.4999L158.24 78.3599V79.9999Z" fill="#8CA6B5"/>
<path d="M150.08 87.9601L131.84 98.4201V96.7801L150.08 86.3201V87.9601Z" fill="#8CA6B5"/>
<path opacity="0.2" d="M70 56C70 56 75.69 93.64 79.46 114.76L117 136.5V83.5L70 56Z" fill="#5A7D91"/>
<path d="M135.52 120.41L122.52 127.94C122.25 128.1 122.04 127.94 122.04 127.58V116.5C122.042 116.321 122.086 116.145 122.169 115.987C122.253 115.828 122.373 115.692 122.52 115.59L135.52 108.06C135.78 107.9 136 108.06 136 108.42V119.5C135.996 119.679 135.951 119.854 135.867 120.012C135.784 120.17 135.665 120.306 135.52 120.41Z" fill="#46697F"/>
<path d="M133.93 111.2H133.85C133.82 111.192 133.79 111.192 133.76 111.2L130.11 113.34L124 121.34V124.89L130.13 116.89L133.3 115.02H133.37C133.379 115.015 133.389 115.012 133.4 115.012C133.411 115.012 133.421 115.015 133.43 115.02C133.446 115.016 133.464 115.016 133.48 115.02C133.48 115.02 133.48 115.02 133.48 115.1C133.483 115.14 133.483 115.18 133.48 115.22C133.463 115.26 133.439 115.297 133.41 115.33L130.41 119.2C130.247 119.421 130.156 119.686 130.15 119.96V121.29L133.97 119.05V111.36C133.976 111.327 133.976 111.293 133.97 111.26C133.965 111.236 133.95 111.214 133.93 111.2Z" fill="#CBD8DF"/>
<path d="M172 51.9998L196 57.9998L141 89.9998L117 83.4998L172 51.9998ZM172 51.3398C171.884 51.3403 171.77 51.3714 171.67 51.4298L116.67 82.9298C116.557 82.9932 116.466 83.0892 116.409 83.2052C116.352 83.3212 116.331 83.4519 116.35 83.5798C116.364 83.7108 116.417 83.8345 116.503 83.9345C116.589 84.0345 116.703 84.1061 116.83 84.1398L140.83 90.6398H141C141.116 90.6409 141.23 90.6097 141.33 90.5498L196.33 58.5498C196.444 58.4848 196.535 58.387 196.592 58.2693C196.649 58.1515 196.669 58.0193 196.65 57.8898C196.635 57.7589 196.58 57.6357 196.492 57.5373C196.404 57.4388 196.288 57.3699 196.16 57.3398L172.16 51.3398H172Z" fill="#8CA9B8"/>
<path d="M70 55.9999L117 83.4999L97 88.9999L50 60.9999L70 55.9999ZM70 55.3399H69.84L49.84 60.3399C49.7137 60.3706 49.5995 60.4384 49.5121 60.5347C49.4248 60.6309 49.3683 60.7512 49.35 60.8799C49.329 61.0097 49.3473 61.1429 49.4026 61.2623C49.4578 61.3816 49.5474 61.4818 49.66 61.5499L96.66 89.5499C96.7637 89.6087 96.8808 89.6397 97 89.6399H97.18L117.18 84.1399C117.304 84.1051 117.415 84.0342 117.499 83.9363C117.582 83.8384 117.635 83.7178 117.65 83.5899C117.669 83.4604 117.649 83.3282 117.592 83.2104C117.535 83.0927 117.444 82.9949 117.33 82.9299L70.33 55.4299C70.2304 55.37 70.1162 55.3389 70 55.3399Z" fill="#8CA9B8"/>
<path d="M145 6.99984L192 33.9998L172 51.9998L125 24.9998L145 6.99984ZM145 6.33984C144.837 6.34038 144.681 6.40091 144.56 6.50984L124.56 24.5098C124.482 24.5791 124.421 24.666 124.383 24.7633C124.344 24.8607 124.33 24.9657 124.34 25.0698C124.353 25.1728 124.39 25.2715 124.447 25.3581C124.504 25.4448 124.58 25.5172 124.67 25.5698L171.67 52.5698C171.79 52.6408 171.93 52.6714 172.068 52.657C172.207 52.6426 172.337 52.584 172.44 52.4898L192.44 34.4898C192.518 34.4206 192.579 34.3337 192.618 34.2364C192.656 34.139 192.67 34.0339 192.66 33.9298C192.647 33.8268 192.61 33.7282 192.553 33.6415C192.496 33.5549 192.42 33.4825 192.33 33.4298L145.33 6.42984C145.23 6.37137 145.116 6.34032 145 6.33984Z" fill="#8CA9B8"/>
<path d="M100 2.99984L125 24.9998L70 55.9998L46 34.9998L100 2.99984ZM100 2.33984C99.8808 2.33997 99.7636 2.37098 99.66 2.42984L45.66 34.4298C45.5711 34.4846 45.496 34.5591 45.4405 34.6475C45.385 34.7359 45.3506 34.836 45.34 34.9398C45.3317 35.0447 45.3482 35.15 45.3881 35.2473C45.4281 35.3446 45.4904 35.4311 45.57 35.4998L69.57 56.4998C69.69 56.6021 69.8423 56.6588 70 56.6598C70.1129 56.6595 70.2235 56.6284 70.32 56.5698L125.32 25.5698C125.412 25.5196 125.491 25.448 125.551 25.3611C125.61 25.2741 125.647 25.1742 125.66 25.0698C125.67 24.9643 125.655 24.858 125.617 24.7592C125.578 24.6603 125.518 24.5716 125.44 24.4998L100.44 2.49984C100.315 2.39898 100.16 2.34267 100 2.33984Z" fill="#8CA9B8"/>
<path d="M125 25L145 7L192 34L172 52L125 25Z" fill="white"/>
<path d="M46 35L100 3L125 25L70 56L46 35Z" fill="white"/>
<path d="M117 83.5L172 52L196 58L141 90L117 83.5Z" fill="white"/>
<path d="M117 83.5L70 56L50 61L97 89L117 83.5Z" fill="white"/>
<path d="M100 2.99996L125 25L145 6.99996L192 34L172 52L196 58L172 72V105L117 136.5L70 109V73L50 61L70 56L46 35L100 2.99996ZM100.14 1.45996L99.36 1.91996L45.36 33.92L43.88 34.8L45.18 35.94L67.38 55.37L49.7 59.79L46.77 60.52L49.36 62.07L68.75 73.71V109.71L69.37 110.07L116.37 137.57L116.99 137.94L117.62 137.58L172.62 106.07L173.25 105.71V72.71L196.63 59.07L199.28 57.52L196.28 56.78L174.56 51.35L192.82 34.92L194.1 33.77L192.6 32.91L145.6 5.90996L144.82 5.44996L144.14 6.05996L125 23.33L100.83 2.05996L100.14 1.45996Z" fill="#5A7D91"/>
</svg>
