<svg width="36" height="36" viewBox="0 0 36 36" fill="none" xmlns="http://www.w3.org/2000/svg">
<g id="info">
<path id="fill-background" fill-rule="evenodd" clip-rule="evenodd" d="M18.005 34.13C26.9106 34.13 34.13 26.9106 34.13 18.005C34.13 9.09941 26.9106 1.88 18.005 1.88C9.09941 1.88 1.88 9.09941 1.88 18.005C1.88 26.9106 9.09941 34.13 18.005 34.13Z" fill="#5F60FF"/>
<path id="fill-foreground" fill-rule="evenodd" clip-rule="evenodd" d="M18 25.6666C17.3787 25.6666 16.875 25.1629 16.875 24.5416L16.875 17.0416C16.875 16.4203 17.3787 15.9166 18 15.9166C18.6213 15.9166 19.125 16.4203 19.125 17.0416L19.125 24.5416C19.125 25.1629 18.6213 25.6666 18 25.6666ZM18 12.9167C17.3787 12.9167 16.875 12.413 16.875 11.7917L16.875 11.625C16.875 11.0037 17.3787 10.5 18 10.5C18.6213 10.5 19.125 11.0037 19.125 11.625L19.125 11.7917C19.125 12.413 18.6213 12.9167 18 12.9167Z" fill="white"/>
</g>
</svg>
